<svg width="35" height="35" viewBox="0 0 35 35" fill="none" xmlns="http://www.w3.org/2000/svg">
<path d="M22.6043 24.7916C22.6043 26.2499 24.7918 29.1666 25.521 29.1666C27.7085 29.1666 29.6524 26.7355 30.6251 24.7916C31.5979 22.3605 31.3543 16.2851 28.4376 8.02075C26.3129 6.54054 24.0626 6.06659 21.8751 5.83325L20.4576 8.63763C18.5019 8.30002 16.5028 8.30002 14.547 8.63763L13.1251 5.83325C10.9376 6.06659 8.68744 6.54054 6.56265 8.02075C3.64598 16.2851 3.40244 22.3605 4.37515 24.7916C5.34786 26.7355 7.29182 29.1666 9.47932 29.1666C10.2085 29.1666 12.396 26.2499 12.396 24.7916M10.2086 24.0624C15.3127 25.5207 19.6877 25.5207 24.7919 24.0624M11.6669 17.4999C11.6669 17.8867 11.8205 18.2576 12.094 18.5311C12.3675 18.8046 12.7384 18.9582 13.1252 18.9582C13.512 18.9582 13.8829 18.8046 14.1564 18.5311C14.4299 18.2576 14.5836 17.8867 14.5836 17.4999C14.5836 17.1131 14.4299 16.7422 14.1564 16.4687C13.8829 16.1952 13.512 16.0416 13.1252 16.0416C12.7384 16.0416 12.3675 16.1952 12.094 16.4687C11.8205 16.7422 11.6669 17.1131 11.6669 17.4999ZM20.4169 17.4999C20.4169 17.8867 20.5705 18.2576 20.844 18.5311C21.1175 18.8046 21.4884 18.9582 21.8752 18.9582C22.262 18.9582 22.6329 18.8046 22.9064 18.5311C23.1799 18.2576 23.3336 17.8867 23.3336 17.4999C23.3336 17.1131 23.1799 16.7422 22.9064 16.4687C22.6329 16.1952 22.262 16.0416 21.8752 16.0416C21.4884 16.0416 21.1175 16.1952 20.844 16.4687C20.5705 16.7422 20.4169 17.1131 20.4169 17.4999Z" stroke="black" stroke-width="2" stroke-linecap="round" stroke-linejoin="round"/>
</svg>
