<svg width="35" height="35" viewBox="0 0 35 35" fill="none" xmlns="http://www.w3.org/2000/svg">
<path d="M24.0627 10.9374V10.952M5.8335 11.6666C5.8335 10.1195 6.44808 8.63576 7.54204 7.54179C8.636 6.44783 10.1197 5.83325 11.6668 5.83325H23.3335C24.8806 5.83325 26.3643 6.44783 27.4583 7.54179C28.5522 8.63576 29.1668 10.1195 29.1668 11.6666V23.3332C29.1668 24.8803 28.5522 26.3641 27.4583 27.458C26.3643 28.552 24.8806 29.1666 23.3335 29.1666H11.6668C10.1197 29.1666 8.636 28.552 7.54204 27.458C6.44808 26.3641 5.8335 24.8803 5.8335 23.3332V11.6666ZM13.1252 17.4999C13.1252 18.6602 13.5861 19.773 14.4066 20.5935C15.227 21.414 16.3398 21.8749 17.5002 21.8749C18.6605 21.8749 19.7733 21.414 20.5938 20.5935C21.4142 19.773 21.8752 18.6602 21.8752 17.4999C21.8752 16.3396 21.4142 15.2268 20.5938 14.4063C19.7733 13.5859 18.6605 13.1249 17.5002 13.1249C16.3398 13.1249 15.227 13.5859 14.4066 14.4063C13.5861 15.2268 13.1252 16.3396 13.1252 17.4999Z" stroke="black" stroke-width="2" stroke-linecap="round" stroke-linejoin="round"/>
</svg>
