<svg width="35" height="35" viewBox="0 0 35 35" fill="none" xmlns="http://www.w3.org/2000/svg">
<path d="M11.6668 16.0416V23.3332M11.6668 11.6666V11.6812M17.5002 23.3332V16.0416M23.3335 23.3332V18.9582C23.3335 18.1847 23.0262 17.4428 22.4792 16.8959C21.9322 16.3489 21.1904 16.0416 20.4168 16.0416C19.6433 16.0416 18.9014 16.3489 18.3544 16.8959C17.8075 17.4428 17.5002 18.1847 17.5002 18.9582M5.8335 8.74992C5.8335 7.97637 6.14079 7.2345 6.68777 6.68752C7.23475 6.14054 7.97661 5.83325 8.75016 5.83325H26.2502C27.0237 5.83325 27.7656 6.14054 28.3126 6.68752C28.8595 7.2345 29.1668 7.97637 29.1668 8.74992V26.2499C29.1668 27.0235 28.8595 27.7653 28.3126 28.3123C27.7656 28.8593 27.0237 29.1666 26.2502 29.1666H8.75016C7.97661 29.1666 7.23475 28.8593 6.68777 28.3123C6.14079 27.7653 5.8335 27.0235 5.8335 26.2499V8.74992Z" stroke="black" stroke-width="2" stroke-linecap="round" stroke-linejoin="round"/>
</svg>
