<svg width="43" height="25" viewBox="0 0 43 25" fill="none" xmlns="http://www.w3.org/2000/svg">
<path d="M7.89233 5.78467H14.8923M14.8923 5.78467C14.8923 6.04988 14.9977 6.30424 15.1852 6.49177C15.3728 6.67931 15.6271 6.78467 15.8923 6.78467C16.1576 6.78467 16.4119 6.67931 16.5994 6.49177C16.787 6.30424 16.8923 6.04988 16.8923 5.78467C16.8923 5.51945 16.787 5.2651 16.5994 5.07756C16.4119 4.89003 16.1576 4.78467 15.8923 4.78467C15.6271 4.78467 15.3728 4.89003 15.1852 5.07756C14.9977 5.2651 14.8923 5.51945 14.8923 5.78467ZM10.8923 19.7847H17.8923M10.8923 19.7847C10.8923 20.0499 10.787 20.3042 10.5994 20.4918C10.4119 20.6793 10.1576 20.7847 9.89233 20.7847C9.62712 20.7847 9.37276 20.6793 9.18523 20.4918C8.99769 20.3042 8.89233 20.0499 8.89233 19.7847C8.89233 19.5195 8.99769 19.2651 9.18523 19.0776C9.37276 18.89 9.62712 18.7847 9.89233 18.7847C10.1576 18.7847 10.4119 18.89 10.5994 19.0776C10.787 19.2651 10.8923 19.5195 10.8923 19.7847ZM7.89233 6.28467C8.54894 6.28467 9.19912 6.4528 9.80575 6.77945C10.4124 7.10611 10.9636 7.58489 11.4279 8.18847C11.8922 8.79205 12.2605 9.50861 12.5117 10.2972C12.763 11.0858 12.8923 11.9311 12.8923 12.7847C12.8923 14.5086 13.4191 16.1619 14.3568 17.3809C15.2945 18.5998 16.5663 19.2847 17.8923 19.2847M3.89233 4.78467C3.89233 4.51945 3.99769 4.2651 4.18523 4.07756C4.37276 3.89002 4.62712 3.78467 4.89233 3.78467H6.89233C7.15755 3.78467 7.4119 3.89002 7.59944 4.07756C7.78698 4.2651 7.89233 4.51945 7.89233 4.78467V6.78467C7.89233 7.04988 7.78698 7.30424 7.59944 7.49177C7.4119 7.67931 7.15755 7.78467 6.89233 7.78467H4.89233C4.62712 7.78467 4.37276 7.67931 4.18523 7.49177C3.99769 7.30424 3.89233 7.04988 3.89233 6.78467V4.78467ZM17.8923 18.7847C17.8923 18.5195 17.9977 18.2651 18.1852 18.0776C18.3728 17.89 18.6271 17.7847 18.8923 17.7847H20.8923C21.1576 17.7847 21.4119 17.89 21.5994 18.0776C21.787 18.2651 21.8923 18.5195 21.8923 18.7847V20.7847C21.8923 21.0499 21.787 21.3042 21.5994 21.4918C21.4119 21.6793 21.1576 21.7847 20.8923 21.7847H18.8923C18.6271 21.7847 18.3728 21.6793 18.1852 21.4918C17.9977 21.3042 17.8923 21.0499 17.8923 20.7847V18.7847Z" stroke="white" stroke-opacity="0.5" stroke-width="2" stroke-linecap="round" stroke-linejoin="round"/>
<path d="M33.5173 9.03467L37.2673 12.7847L33.5173 16.5347" stroke="white" stroke-opacity="0.5" stroke-width="1.5" stroke-linecap="round" stroke-linejoin="round"/>
</svg>
