<svg width="25" height="25" viewBox="0 0 25 25" fill="none" xmlns="http://www.w3.org/2000/svg">
<path d="M8.89233 11.7847V6.78467C8.89233 5.7238 9.31376 4.70639 10.0639 3.95624C10.8141 3.2061 11.8315 2.78467 12.8923 2.78467C13.9532 2.78467 14.9706 3.2061 15.7208 3.95624C16.4709 4.70639 16.8923 5.7238 16.8923 6.78467M5.89233 13.7847C5.89233 13.2542 6.10305 12.7455 6.47812 12.3705C6.85319 11.9954 7.3619 11.7847 7.89233 11.7847H17.8923C18.4228 11.7847 18.9315 11.9954 19.3065 12.3705C19.6816 12.7455 19.8923 13.2542 19.8923 13.7847V19.7847C19.8923 20.3151 19.6816 20.8238 19.3065 21.1989C18.9315 21.574 18.4228 21.7847 17.8923 21.7847H7.89233C7.3619 21.7847 6.85319 21.574 6.47812 21.1989C6.10305 20.8238 5.89233 20.3151 5.89233 19.7847V13.7847ZM11.8923 16.7847C11.8923 17.0499 11.9977 17.3042 12.1852 17.4918C12.3728 17.6793 12.6271 17.7847 12.8923 17.7847C13.1576 17.7847 13.4119 17.6793 13.5994 17.4918C13.787 17.3042 13.8923 17.0499 13.8923 16.7847C13.8923 16.5195 13.787 16.2651 13.5994 16.0776C13.4119 15.89 13.1576 15.7847 12.8923 15.7847C12.6271 15.7847 12.3728 15.89 12.1852 16.0776C11.9977 16.2651 11.8923 16.5195 11.8923 16.7847Z" stroke="white" stroke-opacity="0.5" stroke-width="2" stroke-linecap="round" stroke-linejoin="round"/>
</svg>
