<svg width="43" height="25" viewBox="0 0 43 25" fill="none" xmlns="http://www.w3.org/2000/svg">
<path d="M9.09253 13.9847C10.1102 11.2897 11.8367 8.91941 14.0896 7.12411C16.3425 5.32881 19.0383 4.17507 21.8925 3.78467C21.5021 6.63885 20.348 9.33469 18.5527 11.5876C16.7574 13.8405 14.3871 15.567 11.6921 16.5847M11.4919 9.78467C13.4351 10.6815 14.9951 12.2415 15.8919 14.1847M3.89233 21.7847V17.7847C3.89233 16.9935 4.12693 16.2202 4.56646 15.5624C5.00598 14.9046 5.6307 14.3919 6.3616 14.0892C7.0925 13.7864 7.89677 13.7072 8.6727 13.8615C9.44862 14.0159 10.1614 14.3968 10.7208 14.9562C11.2802 15.5157 11.6611 16.2284 11.8155 17.0043C11.9698 17.7802 11.8906 18.5845 11.5879 19.3154C11.2851 20.0463 10.7724 20.671 10.1146 21.1105C9.45682 21.5501 8.68346 21.7847 7.89233 21.7847H3.89233Z" stroke="white" stroke-opacity="0.5" stroke-width="2" stroke-linecap="round" stroke-linejoin="round"/>
<path d="M33.5173 9.03467L37.2673 12.7847L33.5173 16.5347" stroke="white" stroke-opacity="0.5" stroke-width="1.5" stroke-linecap="round" stroke-linejoin="round"/>
</svg>
