<svg width="43" height="25" viewBox="0 0 43 25" fill="none" xmlns="http://www.w3.org/2000/svg">
<path d="M14.8923 3.78467L21.8923 10.7847M14.8923 10.7847L21.8923 3.78467M3.89233 7.28467C3.89233 7.74429 3.98286 8.19942 4.15876 8.62406C4.33465 9.0487 4.59246 9.43454 4.91746 9.75954C5.24247 10.0845 5.6283 10.3424 6.05294 10.5182C6.47758 10.6941 6.93271 10.7847 7.39233 10.7847C7.85196 10.7847 8.30709 10.6941 8.73173 10.5182C9.15637 10.3424 9.5422 10.0845 9.86721 9.75954C10.1922 9.43454 10.45 9.0487 10.6259 8.62406C10.8018 8.19942 10.8923 7.74429 10.8923 7.28467C10.8923 6.82504 10.8018 6.36992 10.6259 5.94528C10.45 5.52064 10.1922 5.1348 9.86721 4.80979C9.5422 4.48479 9.15637 4.22698 8.73173 4.05109C8.30709 3.8752 7.85196 3.78467 7.39233 3.78467C6.93271 3.78467 6.47758 3.8752 6.05294 4.05109C5.6283 4.22698 5.24247 4.48479 4.91746 4.80979C4.59246 5.1348 4.33465 5.52064 4.15876 5.94528C3.98286 6.36992 3.89233 6.82504 3.89233 7.28467ZM3.39233 21.7847H11.3923L7.39233 14.7847L3.39233 21.7847ZM14.8923 14.7847H21.8923V21.7847H14.8923V14.7847Z" stroke="white" stroke-opacity="0.5" stroke-width="2" stroke-linecap="round" stroke-linejoin="round"/>
<path d="M33.5173 9.03467L37.2673 12.7847L33.5173 16.5347" stroke="white" stroke-opacity="0.5" stroke-width="1.5" stroke-linecap="round" stroke-linejoin="round"/>
</svg>
