<svg width="25" height="25" viewBox="0 0 25 25" fill="none" xmlns="http://www.w3.org/2000/svg">
<path d="M7.89233 10.7847H13.8923M21.8923 21.7847L15.8923 15.7847M3.89233 10.7847C3.89233 11.7039 4.07339 12.6142 4.42518 13.4635C4.77696 14.3127 5.29258 15.0844 5.94259 15.7344C6.5926 16.3844 7.36427 16.9 8.21355 17.2518C9.06283 17.6036 9.97308 17.7847 10.8923 17.7847C11.8116 17.7847 12.7218 17.6036 13.5711 17.2518C14.4204 16.9 15.1921 16.3844 15.8421 15.7344C16.4921 15.0844 17.0077 14.3127 17.3595 13.4635C17.7113 12.6142 17.8923 11.7039 17.8923 10.7847C17.8923 9.86541 17.7113 8.95516 17.3595 8.10588C17.0077 7.2566 16.4921 6.48493 15.8421 5.83492C15.1921 5.18491 14.4204 4.66929 13.5711 4.31751C12.7218 3.96573 11.8116 3.78467 10.8923 3.78467C9.97308 3.78467 9.06283 3.96573 8.21355 4.31751C7.36427 4.66929 6.5926 5.18491 5.94259 5.83492C5.29258 6.48493 4.77696 7.2566 4.42518 8.10588C4.07339 8.95516 3.89233 9.86541 3.89233 10.7847Z" stroke="white" stroke-opacity="0.5" stroke-width="2" stroke-linecap="round" stroke-linejoin="round"/>
</svg>
