<svg width="40" height="22" viewBox="0 0 40 22" fill="none" xmlns="http://www.w3.org/2000/svg">
<path d="M1.18378 20.5887C2.74588 22.1508 5.27854 22.1508 6.84063 20.5887C8.40273 19.0266 8.40273 16.4939 6.84063 14.9318C5.27854 13.3697 2.74588 13.3697 1.18378 14.9318C-0.378317 16.4939 -0.378317 19.0266 1.18378 20.5887ZM14.9441 6.82838C16.5062 8.39048 19.0388 8.39048 20.6009 6.82838C22.163 5.26629 22.163 2.73363 20.6009 1.17153C19.0388 -0.390567 16.5062 -0.390567 14.9441 1.17153C13.382 2.73363 13.382 5.26629 14.9441 6.82838ZM4.54254 18.2906L18.3028 4.53029L17.2422 3.46963L3.48188 17.2299L4.54254 18.2906Z" fill="white" fill-opacity="0.5"/>
<path d="M30.3975 7.75L34.1475 11.5L30.3975 15.25" stroke="white" stroke-opacity="0.5" stroke-width="1.5" stroke-linecap="round" stroke-linejoin="round"/>
</svg>
