<svg width="48" height="33" viewBox="0 0 48 33" fill="none" xmlns="http://www.w3.org/2000/svg">
<g clip-path="url(#clip0_2_2255)">
<path d="M14.3923 19.8562C14.8516 20.1214 15.1868 20.5582 15.3241 21.0706C15.4614 21.5829 15.3895 22.1289 15.1243 22.5882C14.8591 23.0476 14.4223 23.3828 13.9099 23.5201C13.3975 23.6574 12.8516 23.5855 12.3923 23.3203C11.9329 23.0551 11.5977 22.6182 11.4604 22.1059C11.3231 21.5935 11.395 21.0476 11.6602 20.5882C11.9254 20.1289 12.3623 19.7937 12.8746 19.6564C13.387 19.5191 13.9329 19.591 14.3923 19.8562ZM14.3923 19.8562L16.3923 16.3921M14.0621 10.428C13.6028 10.1628 13.2676 9.72591 13.1303 9.21356C12.993 8.7012 13.0649 8.15529 13.3301 7.69592C13.5953 7.23655 14.0321 6.90135 14.5445 6.76407C15.0568 6.62678 15.6028 6.69865 16.0621 6.96387C16.5215 7.22908 16.8567 7.66592 16.994 8.17828C17.1313 8.69064 17.0594 9.23655 16.7942 9.69592C16.529 10.1553 16.0921 10.4905 15.5798 10.6278C15.0674 10.7651 14.5215 10.6932 14.0621 10.428ZM14.0621 10.428L13.0621 12.16C12.7969 12.6194 12.725 13.1653 12.8623 13.6777C12.9996 14.19 13.3348 14.6269 13.7942 14.8921L18.9903 17.8921C19.4497 18.1573 19.9956 18.2292 20.508 18.0919C21.0203 17.9546 21.4572 17.6194 21.7224 17.16L22.7224 15.428M22.7224 15.428C22.263 15.1628 21.9278 14.7259 21.7905 14.2136C21.6532 13.7012 21.7251 13.1553 21.9903 12.6959C22.2555 12.2365 22.6924 11.9014 23.2047 11.7641C23.7171 11.6268 24.263 11.6987 24.7224 11.9639C25.1818 12.2291 25.5169 12.6659 25.6542 13.1783C25.7915 13.6906 25.7197 14.2365 25.4544 14.6959C25.1892 15.1553 24.7524 15.4905 24.24 15.6278C23.7277 15.7651 23.1818 15.6932 22.7224 15.428Z" stroke="white" stroke-opacity="0.5" stroke-width="2" stroke-linecap="round" stroke-linejoin="round"/>
</g>
<path d="M38.4097 12.6421L42.1597 16.3921L38.4097 20.1421" stroke="white" stroke-opacity="0.5" stroke-width="1.5" stroke-linecap="round" stroke-linejoin="round"/>
<defs>
<clipPath id="clip0_2_2255">
<rect width="24" height="24" fill="white" transform="translate(12) rotate(30)"/>
</clipPath>
</defs>
</svg>
