<svg width="8" height="11" viewBox="0 0 8 11" fill="none" xmlns="http://www.w3.org/2000/svg">
<path d="M5.9999 5C6.2839 5 6.43224 4.67133 6.2609 4.459L6.23557 4.431L4.23557 2.431C4.17817 2.37361 4.10181 2.33913 4.0208 2.33404C3.93979 2.32894 3.8597 2.35358 3.79557 2.40333L3.76424 2.431L1.76424 4.431L1.73657 4.46233L1.71857 4.488L1.70057 4.52L1.6949 4.532L1.6859 4.55433L1.67524 4.59033L1.6719 4.608L1.66857 4.628L1.66724 4.647V4.68633L1.6689 4.70567L1.6719 4.72567L1.67524 4.743L1.6859 4.779L1.6949 4.80133L1.71824 4.84533L1.7399 4.87533L1.76424 4.90233L1.79557 4.93L1.82124 4.948L1.85324 4.966L1.86524 4.97167L1.88757 4.98067L1.92357 4.99133L1.94124 4.99467L1.96124 4.998L1.98024 4.99933L5.9999 5Z" fill="white"/>
<path d="M5.9999 6C6.2839 6 6.43224 6.32867 6.2609 6.541L6.23557 6.569L4.23557 8.569C4.17817 8.62639 4.10181 8.66087 4.0208 8.66596C3.93979 8.67106 3.8597 8.64642 3.79557 8.59667L3.76424 8.569L1.76424 6.569L1.73657 6.53767L1.71857 6.512L1.70057 6.48L1.6949 6.468L1.6859 6.44567L1.67524 6.40967L1.6719 6.392L1.66857 6.372L1.66724 6.353V6.31367L1.6689 6.29433L1.6719 6.27433L1.67524 6.257L1.6859 6.221L1.6949 6.19867L1.71824 6.15467L1.7399 6.12467L1.76424 6.09767L1.79557 6.07L1.82124 6.052L1.85324 6.034L1.86524 6.02833L1.88757 6.01933L1.92357 6.00867L1.94124 6.00533L1.96124 6.002L1.98024 6.00067L5.9999 6Z" fill="white"/>
</svg>
