<svg width="12" height="12" viewBox="0 0 12 12" fill="none" xmlns="http://www.w3.org/2000/svg">
<path d="M2.5 3.5H3C3.26522 3.5 3.51957 3.39464 3.70711 3.20711C3.89464 3.01957 4 2.76522 4 2.5C4 2.36739 4.05268 2.24021 4.14645 2.14645C4.24021 2.05268 4.36739 2 4.5 2H7.5C7.63261 2 7.75979 2.05268 7.85355 2.14645C7.94732 2.24021 8 2.36739 8 2.5C8 2.76522 8.10536 3.01957 8.29289 3.20711C8.48043 3.39464 8.73478 3.5 9 3.5H9.5C9.76522 3.5 10.0196 3.60536 10.2071 3.79289C10.3946 3.98043 10.5 4.23478 10.5 4.5V9C10.5 9.26522 10.3946 9.51957 10.2071 9.70711C10.0196 9.89464 9.76522 10 9.5 10H2.5C2.23478 10 1.98043 9.89464 1.79289 9.70711C1.60536 9.51957 1.5 9.26522 1.5 9V4.5C1.5 4.23478 1.60536 3.98043 1.79289 3.79289C1.98043 3.60536 2.23478 3.5 2.5 3.5Z" stroke="white" stroke-width="1.2" stroke-linecap="round" stroke-linejoin="round"/>
<path d="M4.5 6.5C4.5 6.89782 4.65804 7.27936 4.93934 7.56066C5.22064 7.84196 5.60218 8 6 8C6.39782 8 6.77936 7.84196 7.06066 7.56066C7.34196 7.27936 7.5 6.89782 7.5 6.5C7.5 6.10218 7.34196 5.72064 7.06066 5.43934C6.77936 5.15804 6.39782 5 6 5C5.60218 5 5.22064 5.15804 4.93934 5.43934C4.65804 5.72064 4.5 6.10218 4.5 6.5Z" stroke="white" stroke-width="1.2" stroke-linecap="round" stroke-linejoin="round"/>
</svg>
