<svg width="12" height="12" viewBox="0 0 12 12" fill="none" xmlns="http://www.w3.org/2000/svg">
<g clip-path="url(#clip0_837_427)">
<path d="M5.1625 2.1585C5.3755 1.2805 6.6245 1.2805 6.8375 2.1585C6.86946 2.2904 6.93211 2.41289 7.02036 2.516C7.1086 2.61911 7.21994 2.69993 7.34533 2.75187C7.47071 2.80382 7.60658 2.82543 7.74189 2.81493C7.8772 2.80444 8.00812 2.76215 8.124 2.6915C8.8955 2.2215 9.779 3.1045 9.309 3.8765C9.23845 3.99233 9.19622 4.12317 9.18576 4.25839C9.17529 4.3936 9.19688 4.52938 9.24876 4.65469C9.30065 4.77999 9.38137 4.89129 9.48436 4.97953C9.58736 5.06776 9.70972 5.13045 9.8415 5.1625C10.7195 5.3755 10.7195 6.6245 9.8415 6.8375C9.7096 6.86946 9.58711 6.93211 9.484 7.02036C9.38089 7.1086 9.30007 7.21994 9.24813 7.34533C9.19618 7.47071 9.17457 7.60658 9.18507 7.74189C9.19556 7.8772 9.23785 8.00812 9.3085 8.124C9.7785 8.8955 8.8955 9.779 8.1235 9.309C8.00767 9.23845 7.87683 9.19622 7.74161 9.18576C7.6064 9.17529 7.47062 9.19688 7.34531 9.24876C7.22001 9.30065 7.10871 9.38137 7.02047 9.48436C6.93224 9.58736 6.86955 9.70972 6.8375 9.8415C6.6245 10.7195 5.3755 10.7195 5.1625 9.8415C5.13054 9.7096 5.06789 9.58711 4.97964 9.484C4.8914 9.38089 4.78006 9.30007 4.65467 9.24813C4.52929 9.19618 4.39342 9.17457 4.25811 9.18507C4.1228 9.19556 3.99188 9.23785 3.876 9.3085C3.1045 9.7785 2.221 8.8955 2.691 8.1235C2.76155 8.00767 2.80378 7.87683 2.81424 7.74161C2.82471 7.6064 2.80312 7.47062 2.75124 7.34531C2.69935 7.22001 2.61863 7.10871 2.51564 7.02047C2.41264 6.93224 2.29028 6.86955 2.1585 6.8375C1.2805 6.6245 1.2805 5.3755 2.1585 5.1625C2.2904 5.13054 2.41289 5.06789 2.516 4.97964C2.61911 4.8914 2.69993 4.78006 2.75187 4.65467C2.80382 4.52929 2.82543 4.39342 2.81493 4.25811C2.80444 4.1228 2.76215 3.99188 2.6915 3.876C2.2215 3.1045 3.1045 2.221 3.8765 2.691C4.3765 2.995 5.0245 2.726 5.1625 2.1585Z" stroke="white" stroke-width="1.2" stroke-linecap="round" stroke-linejoin="round"/>
<path d="M4.5 6C4.5 6.39782 4.65804 6.77936 4.93934 7.06066C5.22064 7.34196 5.60218 7.5 6 7.5C6.39782 7.5 6.77936 7.34196 7.06066 7.06066C7.34196 6.77936 7.5 6.39782 7.5 6C7.5 5.60218 7.34196 5.22064 7.06066 4.93934C6.77936 4.65804 6.39782 4.5 6 4.5C5.60218 4.5 5.22064 4.65804 4.93934 4.93934C4.65804 5.22064 4.5 5.60218 4.5 6Z" stroke="white" stroke-width="1.2" stroke-linecap="round" stroke-linejoin="round"/>
</g>
<defs>
<clipPath id="clip0_837_427">
<rect width="12" height="12" fill="white"/>
</clipPath>
</defs>
</svg>
